<svg width="0" height="0" class="hidden">
  <symbol viewBox="0 0 12 13" fill="none" xmlns="http://www.w3.org/2000/svg" id="viber">
    <g clip-path="url(#clip0_1_15970)">
    <path d="M6.40796 7.27975C6.27072 7.41708 6.04815 7.41708 5.91082 7.27975L4.31323 5.68216C4.24731 5.61624 4.21023 5.52679 4.21023 5.43359C4.21023 5.3403 4.24731 5.25095 4.31323 5.18494L4.59723 4.90103L3.76309 4.06689L3.07974 4.75024C2.84976 4.98022 2.84985 5.3544 3.07974 5.58438L6.0086 8.51343C6.11929 8.62411 6.26742 8.685 6.42572 8.685C6.58401 8.685 6.73214 8.62402 6.84283 8.51334L7.52618 7.83008L6.69204 6.99585L6.40796 7.27975Z" fill="#5D6C7B"/>
    <path d="M11.4957 4.73541C11.4957 3.60831 11.0541 2.54593 10.2519 1.74384C9.4498 0.941742 8.38742 0.5 7.26041 0.5H4.75085C4.75085 0.5 4.75085 0.5 4.75076 0.5C3.62384 0.5 2.56146 0.941742 1.75946 1.74374C0.957367 2.54584 0.515625 3.60831 0.515625 4.73532V6.70792C0.515625 7.58069 0.78186 8.42032 1.28558 9.13599C1.72998 9.76733 2.32764 10.2604 3.02444 10.5732V11.7062C3.02444 12.2921 3.35248 12.4999 3.63336 12.5C3.83405 12.5 4.03482 12.4009 4.23019 12.2057L5.49243 10.9432H7.2605C8.38751 10.9432 9.44989 10.5015 10.252 9.6994C11.0541 8.89731 11.4958 7.83493 11.4958 6.70792L11.4957 4.73541ZM8.27197 8.07864L7.33997 9.01056C7.09644 9.25409 6.77179 9.38803 6.42572 9.38803C6.07965 9.38803 5.755 9.254 5.51147 9.01056L2.58252 6.08151C2.07852 5.57733 2.07852 4.75711 2.58252 4.25302L3.51453 3.32111C3.58044 3.2551 3.6698 3.21811 3.76309 3.21811C3.85629 3.21811 3.94574 3.2551 4.01166 3.32111L5.34302 4.65247C5.40894 4.71838 5.44592 4.80783 5.44592 4.90103C5.44592 4.99423 5.40894 5.08368 5.34293 5.1496L5.05902 5.4335L6.15948 6.53397L6.44348 6.24997C6.58081 6.11273 6.80338 6.11273 6.94061 6.25006L8.27197 7.58142C8.33798 7.64734 8.37497 7.73679 8.37497 7.82999C8.37497 7.92328 8.33798 8.01273 8.27197 8.07864ZM5.73944 3.91299C5.73944 3.7189 5.89682 3.56143 6.091 3.56143C7.30911 3.56143 8.30017 4.5524 8.30017 5.77042C8.30017 5.9646 8.14279 6.12198 7.94861 6.12198C7.75452 6.12198 7.59705 5.9646 7.59705 5.77042C7.59705 4.94012 6.92148 4.26456 6.091 4.26456C5.89682 4.26456 5.73944 4.10718 5.73944 3.91299ZM9.45474 6.12216C9.26056 6.12216 9.10318 5.96469 9.10318 5.7706C9.10327 4.96594 8.78989 4.20953 8.22098 3.64053C7.65198 3.07162 6.89557 2.75824 6.09091 2.75824C5.89682 2.75824 5.73935 2.60086 5.73935 2.40668C5.73935 2.21259 5.89682 2.05511 6.09091 2.05511C7.08334 2.05511 8.01636 2.44165 8.71811 3.1434C9.41995 3.84515 9.8064 4.77817 9.8063 5.7706C9.8063 5.96469 9.64893 6.12216 9.45474 6.12216Z" fill="#5D6C7B"/>
    </g>
    <defs>
    <clipPath id="clip0_1_15970">
    <rect width="12" height="12" fill="white" transform="translate(0 0.5)"/>
    </clipPath>
    </defs>
  </symbol>
  <symbol viewBox="0 0 13 13" fill="none" xmlns="http://www.w3.org/2000/svg" id="whatsap">
    <g clip-path="url(#clip0_1_15973)">
    <path d="M6.49685 0.503787C3.18509 0.50449 0.500956 3.18978 0.501659 6.50153C0.501893 7.64828 0.830971 8.7709 1.44982 9.73633L0.516884 12.1569C0.467202 12.2856 0.531289 12.4303 0.660026 12.48C0.688813 12.4911 0.719381 12.4968 0.75023 12.4967C0.778854 12.4969 0.807267 12.492 0.834181 12.4822L3.33271 11.5902C6.14383 13.341 9.842 12.4815 11.5928 9.67033C13.3436 6.85918 12.484 3.16104 9.67286 1.41026C8.71994 0.81675 7.61952 0.502686 6.49685 0.503787Z" fill="#5D6C7B"/>
    <path d="M9.35557 7.52445C9.35557 7.52445 8.74344 7.22462 8.36016 7.02475C7.92642 6.80138 7.41672 7.21963 7.17686 7.4575C6.80356 7.3141 6.46261 7.09767 6.17396 6.82087C5.89711 6.53227 5.68068 6.19131 5.53732 5.81796C5.77519 5.57761 6.19244 5.06841 5.97008 4.63467C5.77269 4.2509 5.47038 3.63877 5.47038 3.63877C5.42796 3.55458 5.34178 3.50144 5.2475 3.50134H4.74781C4.02008 3.62703 3.49097 4.262 3.49855 5.00046C3.49855 5.78498 4.43749 7.29211 5.07063 7.92572C5.70377 8.55933 7.21087 9.49779 7.99589 9.49779C8.73435 9.50538 9.36932 8.97624 9.49501 8.24854V7.74884C9.49508 7.65356 9.44102 7.56654 9.35557 7.52445Z" fill="#F7F7F7"/>
    </g>
    <defs>
    <clipPath id="clip0_1_15973">
    <rect width="12" height="12" fill="white" transform="translate(0.5 0.5)"/>
    </clipPath>
    </defs>
  </symbol>
  <symbol viewBox="0 0 12 13" fill="none" xmlns="http://www.w3.org/2000/svg" id="telegram">
    <g clip-path="url(#clip0_1_15976)">
    <path d="M4.70847 8.09058L4.50997 10.8826C4.79397 10.8826 4.91697 10.7606 5.06447 10.6141L6.39597 9.34158L9.15497 11.3621C9.66097 11.6441 10.0175 11.4956 10.154 10.8966L11.965 2.41058L11.9655 2.41008C12.126 1.66208 11.695 1.36958 11.202 1.55308L0.556967 5.62858C-0.169533 5.91058 -0.158533 6.31558 0.433467 6.49908L3.15497 7.34558L9.47647 3.39008C9.77397 3.19308 10.0445 3.30208 9.82197 3.49908L4.70847 8.09058Z" fill="#5D6C7B"/>
    </g>
    <defs>
    <clipPath id="clip0_1_15976">
    <rect width="12" height="12" fill="white" transform="translate(0 0.5)"/>
    </clipPath>
    </defs>
  </symbol>
  <symbol  viewBox="0 0 16 16" fill="none" xmlns="http://www.w3.org/2000/svg" id="search">
    <path d="M15.9519 14.8499L10.758 9.65596C11.564 8.61396 11.9999 7.33997 11.9999 5.99997C11.9999 4.39598 11.374 2.89199 10.242 1.75799C9.10996 0.623997 7.60197 0 5.99997 0C4.39798 0 2.88999 0.625997 1.75799 1.75799C0.623997 2.88999 0 4.39598 0 5.99997C0 7.60197 0.625997 9.10996 1.75799 10.242C2.88999 11.376 4.39598 11.9999 5.99997 11.9999C7.33997 11.9999 8.61196 11.564 9.65396 10.76L14.8479 15.9519C14.8632 15.9672 14.8812 15.9793 14.9012 15.9875C14.9211 15.9958 14.9424 16 14.9639 16C14.9855 16 15.0068 15.9958 15.0267 15.9875C15.0466 15.9793 15.0647 15.9672 15.0799 15.9519L15.9519 15.0819C15.9672 15.0667 15.9793 15.0486 15.9875 15.0287C15.9958 15.0088 16 14.9875 16 14.9659C16 14.9444 15.9958 14.9231 15.9875 14.9032C15.9793 14.8833 15.9672 14.8652 15.9519 14.8499ZM9.16796 9.16796C8.31996 10.014 7.19597 10.48 5.99997 10.48C4.80398 10.48 3.67998 10.014 2.83199 9.16796C1.98599 8.31996 1.51999 7.19597 1.51999 5.99997C1.51999 4.80398 1.98599 3.67798 2.83199 2.83199C3.67998 1.98599 4.80398 1.51999 5.99997 1.51999C7.19597 1.51999 8.32196 1.98399 9.16796 2.83199C10.014 3.67998 10.48 4.80398 10.48 5.99997C10.48 7.19597 10.014 8.32196 9.16796 9.16796Z" fill="white"/>
  </symbol>
  <symbol  viewBox="0 0 20 20" fill="none" xmlns="http://www.w3.org/2000/svg" id="love">
    <path d="M17.9935 5.51496C17.7329 4.90541 17.357 4.35303 16.887 3.88876C16.4167 3.4231 15.8621 3.05305 15.2535 2.79873C14.6224 2.53397 13.9455 2.39845 13.2622 2.40004C12.3034 2.40004 11.3681 2.66518 10.5552 3.166C10.3607 3.28581 10.176 3.4174 10.001 3.56077C9.82594 3.4174 9.6412 3.28581 9.44673 3.166C8.63386 2.66518 7.69847 2.40004 6.73975 2.40004C6.0494 2.40004 5.38043 2.53359 4.74841 2.79873C4.13779 3.05405 3.58745 3.42132 3.11489 3.88876C2.64428 4.35251 2.26834 4.90501 2.00838 5.51496C1.73807 6.14934 1.6 6.823 1.6 7.51629C1.6 8.17031 1.73224 8.85182 1.99477 9.54512C2.21451 10.1245 2.52955 10.7255 2.9321 11.3324C3.56995 12.2928 4.44699 13.2944 5.536 14.3098C7.34066 15.993 9.1278 17.1557 9.20365 17.2028L9.66453 17.5013C9.86872 17.6329 10.1313 17.6329 10.3354 17.5013L10.7963 17.2028C10.8722 17.1537 12.6574 15.993 14.464 14.3098C15.553 13.2944 16.43 12.2928 17.0679 11.3324C17.4704 10.7255 17.7874 10.1245 18.0052 9.54512C18.2677 8.85182 18.4 8.17031 18.4 7.51629C18.4019 6.823 18.2639 6.14934 17.9935 5.51496ZM10.001 15.9478C10.001 15.9478 3.07795 11.4679 3.07795 7.51629C3.07795 5.51496 4.7173 3.89269 6.73975 3.89269C8.1613 3.89269 9.39422 4.69401 10.001 5.86456C10.6077 4.69401 11.8406 3.89269 13.2622 3.89269C15.2846 3.89269 16.924 5.51496 16.924 7.51629C16.924 11.4679 10.001 15.9478 10.001 15.9478Z" fill="#282739"/>
  </symbol>
  <symbol  viewBox="0 0 20 20" fill="none" xmlns="http://www.w3.org/2000/svg" id="shopping">
    <g clip-path="url(#clip0_1_16000)">
    <path d="M19.1523 7.25427H15.0031L12.6756 1.92486C12.5461 1.62833 12.2007 1.49282 11.9042 1.62239C11.6076 1.75189 11.4722 2.09732 11.6017 2.39388L13.7244 7.25431H6.27561L8.39827 2.39388C8.52776 2.09732 8.39237 1.75193 8.09581 1.62239C7.79929 1.49282 7.45382 1.62825 7.32436 1.92486L4.99686 7.25427H0.847685C0.304911 7.25427 -0.0979012 7.74564 0.0208488 8.26286L2.20581 17.7797C2.29257 18.1576 2.63608 18.4261 3.03265 18.4261H16.9673C17.3639 18.4261 17.7074 18.1576 17.7942 17.7797L19.9791 8.26286C20.0979 7.74568 19.695 7.25427 19.1523 7.25427ZM5.1071 9.0513C5.02882 9.0513 4.94925 9.03552 4.87288 9.00216C4.57632 8.87267 4.44089 8.52728 4.57042 8.23068L5.01057 7.22278H6.28933L5.64432 8.69966C5.54819 8.91993 5.33296 9.0513 5.1071 9.0513ZM7.0703 15.3011C7.0703 15.6247 6.80796 15.8871 6.48436 15.8871C6.16077 15.8871 5.89843 15.6247 5.89843 15.3011V11.0043C5.89843 10.6807 6.16077 10.4183 6.48436 10.4183C6.80796 10.4183 7.0703 10.6807 7.0703 11.0043V15.3011ZM10.5859 15.3011C10.5859 15.6247 10.3236 15.8871 9.99999 15.8871C9.6764 15.8871 9.41405 15.6247 9.41405 15.3011V11.0043C9.41405 10.6807 9.6764 10.4183 9.99999 10.4183C10.3236 10.4183 10.5859 10.6807 10.5859 11.0043V15.3011ZM14.1016 15.3011C14.1016 15.6247 13.8392 15.8871 13.5156 15.8871C13.192 15.8871 12.9297 15.6247 12.9297 15.3011V11.0043C12.9297 10.6807 13.192 10.4183 13.5156 10.4183C13.8392 10.4183 14.1016 10.6807 14.1016 11.0043V15.3011ZM15.1271 9.00216C15.0507 9.03552 14.9712 9.0513 14.8929 9.0513C14.667 9.0513 14.4518 8.91997 14.3556 8.6997L13.7106 7.22282H14.9894L15.4295 8.23071C15.5591 8.52728 15.4236 8.87267 15.1271 9.00216Z" fill="#6F73EE"/>
    </g>
    <defs>
    <clipPath id="clip0_1_16000">
    <rect width="20" height="20" fill="white"/>
    </clipPath>
    </defs>
  </symbol>
  <symbol viewBox="0 0 13 12" fill="none" xmlns="http://www.w3.org/2000/svg" id="line">
    <line x1="0.65" y1="1.35" x2="12.35" y2="1.35" stroke="white" stroke-width="1.3" stroke-linecap="round"/>
    <line x1="0.65" y1="6.35" x2="12.35" y2="6.35" stroke="white" stroke-width="1.3" stroke-linecap="round"/>
    <line x1="6.65" y1="11.35" x2="12.35" y2="11.35" stroke="white" stroke-width="1.3" stroke-linecap="round"/>
  </symbol>
  <symbol  viewBox="0 0 13 15" fill="none" xmlns="http://www.w3.org/2000/svg" id="map">
    <path d="M10.9468 1.84193C9.75908 0.654143 8.1798 0 6.50008 0C4.82034 0 3.24111 0.654114 2.05327 1.84193C0.865508 3.02969 0.211365 4.60886 0.211365 6.2886C0.211365 7.96834 0.865508 9.54757 2.05327 10.7354L6.18936 14.8713C6.27517 14.9571 6.38764 15 6.50008 15C6.61255 15 6.72502 14.9571 6.8108 14.8713L10.9467 10.7354C12.1345 9.5476 12.7887 7.96837 12.7887 6.28863C12.7887 4.60883 12.1346 3.02966 10.9468 1.84193ZM8.47505 8.26351C7.94753 8.79103 7.24616 9.08157 6.50011 9.08157C5.75406 9.08157 5.05269 8.79106 4.5252 8.26354C3.99765 7.73602 3.70714 7.03465 3.70714 6.2886C3.70714 5.54258 3.99765 4.84121 4.5252 4.31366C5.05269 3.78614 5.75406 3.49563 6.50011 3.49563C7.24616 3.49563 7.94753 3.78614 8.47505 4.31366C9.00257 4.84115 9.29311 5.54252 9.29311 6.28857C9.29308 7.03462 9.00254 7.73602 8.47505 8.26351Z" fill="white"/>
  </symbol>
  <symbol viewBox="0 0 16 16" fill="none" xmlns="http://www.w3.org/2000/svg" id="scooter">
    <g clip-path="url(#clip0_1_14920)">
    <path d="M12.9407 10.8467L10.3157 1.86234L12.0813 1.67171C12.4469 1.63109 12.7125 1.30296 12.6719 0.937337C12.6313 0.571712 12.3063 0.302962 11.9375 0.346712L6.84067 0.896712C6.47505 0.937337 6.20942 1.26546 6.25005 1.63109C6.28755 1.97171 6.57505 2.22484 6.91255 2.22484C6.93755 2.22484 6.95942 2.22484 6.98442 2.22171L8.97192 2.00921L11.6469 11.1842C11.1188 11.4936 10.7219 11.9936 10.5469 12.5873H5.45317C5.15942 11.5842 4.22505 10.8467 3.11255 10.8467C1.76567 10.8467 0.675049 11.9248 0.675049 13.253C0.675049 14.5811 1.76567 15.6592 3.11255 15.6592C4.22505 15.6592 5.15942 14.9248 5.45317 13.9186H10.5438C10.8375 14.9217 11.7719 15.6592 12.8844 15.6592C14.2313 15.6592 15.3219 14.5811 15.3219 13.253C15.3219 11.9405 14.2625 10.8748 12.9407 10.8467Z" fill="white"/>
    </g>
    <defs>
    <clipPath id="clip0_1_14920">
    <rect width="16" height="16" fill="white"/>
    </clipPath>
    </defs>
  </symbol>
  <symbol  viewBox="0 0 16 16" fill="none" xmlns="http://www.w3.org/2000/svg" id="energy">
    <path d="M12.1998 0H6.19959L3.80035 8.63849H6.20448L4.16032 16H4.88044L11.8393 7.36114H8.31397L12.1998 0Z" fill="white"/>
  </symbol>
  <symbol  viewBox="0 0 22 22" fill="none" xmlns="http://www.w3.org/2000/svg" id="checkbox">
    <path d="M15.0168 7.58398H14.0092C13.79 7.58398 13.5816 7.68926 13.4527 7.86973L10.0754 12.5533L8.54566 10.4307C8.41676 10.2523 8.21051 10.1449 7.98922 10.1449H6.9816C6.84195 10.1449 6.76031 10.3039 6.84195 10.4178L9.51891 14.1303C9.58215 14.2185 9.66552 14.2905 9.7621 14.3401C9.85868 14.3897 9.9657 14.4156 10.0743 14.4156C10.1829 14.4156 10.2899 14.3897 10.3865 14.3401C10.483 14.2905 10.5664 14.2185 10.6297 14.1303L15.1543 7.85684C15.2381 7.74297 15.1564 7.58398 15.0168 7.58398V7.58398Z" fill="#6F73EE"/>
    <path d="M11 1.375C5.68477 1.375 1.375 5.68477 1.375 11C1.375 16.3152 5.68477 20.625 11 20.625C16.3152 20.625 20.625 16.3152 20.625 11C20.625 5.68477 16.3152 1.375 11 1.375ZM11 18.9922C6.58711 18.9922 3.00781 15.4129 3.00781 11C3.00781 6.58711 6.58711 3.00781 11 3.00781C15.4129 3.00781 18.9922 6.58711 18.9922 11C18.9922 15.4129 15.4129 18.9922 11 18.9922Z" fill="#6F73EE"/>
  </symbol>
  <symbol viewBox="0 0 18 18" fill="none" xmlns="http://www.w3.org/2000/svg" id="battery">
    <path d="M16.5 3.75001V2.99999C16.5 2.58655 16.1638 2.25 15.75 2.25H13.5C13.0862 2.25 12.75 2.58655 12.75 2.99999V3.74998H12.5303L12.2198 3.43944C11.9407 3.16002 11.554 2.99999 11.1592 2.99999H6.84081C6.44604 2.99999 6.05932 3.16002 5.78025 3.43944L5.46971 3.74998H5.24999V2.99999C5.24999 2.58655 4.91382 2.25 4.5 2.25H2.25C1.83618 2.25 1.50001 2.58655 1.50001 2.99999V3.74998C0.673102 3.75001 0 4.42273 0 5.24999V14.25C0 15.0773 0.673102 15.75 1.50001 15.75H16.5C17.3269 15.75 18 15.0773 18 14.25V5.24999C18 4.42273 17.3269 3.75001 16.5 3.75001ZM4.12499 7.49999H2.62501C2.41773 7.49999 2.25 7.33226 2.25 7.12498C2.25 6.91773 2.41773 6.75 2.62501 6.75H4.12502C4.3323 6.75 4.50004 6.91773 4.50004 7.12501C4.5 7.33229 4.33227 7.49999 4.12499 7.49999ZM15.375 7.49999H15V7.875C15 8.08228 14.8322 8.25001 14.625 8.25001C14.4177 8.25001 14.25 8.08228 14.25 7.875V7.49999H13.8749C13.6677 7.49999 13.4999 7.33226 13.4999 7.12498C13.4999 6.9177 13.6677 6.74996 13.8749 6.74996H14.25V6.37495C14.25 6.16767 14.4177 5.99994 14.625 5.99994C14.8322 5.99994 15 6.16767 15 6.37495V6.75H15.375C15.5823 6.75 15.75 6.91773 15.75 7.12501C15.75 7.33229 15.5823 7.49999 15.375 7.49999Z" fill="#5D6C7B"/>
  </symbol>
  <symbol  viewBox="0 0 18 18" fill="none" xmlns="http://www.w3.org/2000/svg" id="speed">
    <path d="M8.47256 4.5644V1.23605C6.43975 1.35274 4.53344 2.14266 3.01184 3.49874L5.36506 5.85196C6.25065 5.11474 7.32597 4.66917 8.47256 4.5644Z" fill="#5D6C7B"/>
    <path d="M4.61919 6.59759L2.266 4.24442C0.908759 5.76559 0.117849 7.67203 0.000427246 9.70533H3.32892C3.43438 8.5585 3.88087 7.48311 4.61919 6.59759Z" fill="#5D6C7B"/>
    <path d="M14.671 9.70533H17.9995C17.8821 7.67203 17.0912 5.76559 15.7339 4.24442L13.3807 6.59759C14.1191 7.48307 14.5655 8.5585 14.671 9.70533Z" fill="#5D6C7B"/>
    <path d="M14.6704 10.76C14.4959 12.676 13.4442 13.845 13.0266 14.2625C12.8203 14.4688 12.8203 14.8033 13.0266 15.0096L14.6267 16.6097C14.7298 16.7128 14.865 16.7644 15.0002 16.7644C15.1354 16.7644 15.2705 16.7128 15.3737 16.6097C16.9531 15.0305 17.874 12.9698 18 10.76H14.6704Z" fill="#5D6C7B"/>
    <path d="M3.27189 13.7858C3.41919 13.5544 3.64215 13.2058 3.90962 12.7933C3.63544 12.2499 3.40358 11.5724 3.32965 10.76H0C0.126035 12.9698 1.04695 15.0305 2.62628 16.6097C2.72943 16.7129 2.8646 16.7644 2.99978 16.7644C3.13495 16.7644 3.27016 16.7128 3.37331 16.6097L3.92119 16.0618C3.76249 15.9854 3.61607 15.8821 3.48785 15.754C2.95952 15.2256 2.87068 14.4163 3.27189 13.7858Z" fill="#5D6C7B"/>
    <path d="M9.52734 1.23605V4.5644C10.6739 4.66917 11.7493 5.1147 12.6348 5.85196L14.9881 3.49874C13.4665 2.14263 11.5601 1.35274 9.52734 1.23605Z" fill="#5D6C7B"/>
    <path d="M7.82841 9.06992C7.01222 9.8861 4.45108 13.8972 4.16175 14.352C4.02903 14.5605 4.05899 14.8332 4.23375 15.008C4.40851 15.1827 4.68122 15.2127 4.88976 15.08C5.34444 14.7906 9.35564 12.2295 10.1718 11.4133C10.8179 10.7673 10.8179 9.71602 10.1718 9.06995C9.52576 8.42389 8.47448 8.42385 7.82841 9.06992Z" fill="#5D6C7B"/>
  </symbol>
  <symbol  viewBox="0 0 18 18" fill="none" xmlns="http://www.w3.org/2000/svg" id="power">
    <path d="M14.2233 0.260732C14.14 0.101188 13.9749 0 13.7948 0H6.72925C6.51557 0 6.32727 0.141421 6.26614 0.346092L3.74218 8.80412C3.69851 8.95043 3.72654 9.10792 3.81776 9.23032C3.90898 9.35277 4.0527 9.42405 4.20529 9.42405H8.16696L6.57097 17.4212C6.52452 17.6538 6.65367 17.8862 6.87586 17.9691C6.93126 17.9898 6.98841 18 7.04477 18C7.21428 18 7.37679 17.9106 7.46487 17.7559L13.689 6.82597C13.7741 6.67634 13.7733 6.49172 13.6868 6.34287C13.6003 6.19402 13.4412 6.10147 13.269 6.10147H10.4664L14.1912 0.760267C14.2942 0.612563 14.3066 0.420397 14.2233 0.260732Z" fill="#5D6C7B"/>
  </symbol>
  <symbol viewBox="0 0 18 18" fill="none" xmlns="http://www.w3.org/2000/svg" id="timer">
    <g clip-path="url(#clip0_637_305)">
    <path d="M14.4526 5.35819L15.5303 4.28044L14.4698 3.21956L13.3169 4.3725C12.2636 3.62609 11.0346 3.16607 9.75007 3.0375V1.5H11.2501V0H6.75007V1.5H8.25007V3.0375C6.96557 3.16607 5.7365 3.62609 4.68325 4.3725L3.53031 3.21956L2.46982 4.28044L3.54757 5.35819C2.54155 6.42334 1.86955 7.75982 1.61454 9.20259C1.35953 10.6454 1.53269 12.1312 2.11264 13.4767C2.69258 14.8222 3.6539 15.9683 4.8779 16.7736C6.10189 17.5788 7.53493 18.008 9.00007 18.008C10.4652 18.008 11.8982 17.5788 13.1222 16.7736C14.3462 15.9683 15.3076 14.8222 15.8875 13.4767C16.4674 12.1312 16.6406 10.6454 16.3856 9.20259C16.1306 7.75982 15.4586 6.42334 14.4526 5.35819ZM9.00007 16.5C7.81338 16.5 6.65334 16.1481 5.66664 15.4888C4.67995 14.8295 3.91091 13.8925 3.45679 12.7961C3.00266 11.6997 2.88384 10.4933 3.11535 9.32946C3.34686 8.16557 3.91831 7.09647 4.75742 6.25736C5.59654 5.41824 6.66564 4.8468 7.82952 4.61529C8.99341 4.38378 10.1998 4.5026 11.2962 4.95672C12.3925 5.41085 13.3296 6.17988 13.9889 7.16658C14.6482 8.15327 15.0001 9.31331 15.0001 10.5C14.9983 12.0908 14.3656 13.6158 13.2407 14.7407C12.1159 15.8655 10.5908 16.4982 9.00007 16.5Z" fill="#5D6C7B"/>
    <path d="M9 6.00015V10.5002H4.5C4.5 11.3902 4.76392 12.2602 5.25839 13.0002C5.75285 13.7402 6.45566 14.317 7.27792 14.6576C8.10019 14.9982 9.00499 15.0873 9.87791 14.9137C10.7508 14.7401 11.5526 14.3115 12.182 13.6821C12.8113 13.0528 13.2399 12.251 13.4135 11.3781C13.5872 10.5051 13.4981 9.60034 13.1575 8.77808C12.8169 7.95581 12.2401 7.25301 11.5001 6.75854C10.76 6.26407 9.89002 6.00015 9 6.00015Z" fill="#5D6C7B"/>
    </g>
    <defs>
    <clipPath id="clip0_637_305">
    <rect width="18" height="18" fill="white"/>
    </clipPath>
    </defs>
  </symbol>
  <symbol  viewBox="0 0 20 20" xmlns="http://www.w3.org/2000/svg" id="select">
    <path d="M17.9935 5.51493C17.7329 4.90538 17.357 4.353 16.887 3.88873C16.4167 3.42307 15.8621 3.05302 15.2535 2.7987C14.6224 2.53394 13.9455 2.39842 13.2621 2.40001C12.3034 2.40001 11.368 2.66515 10.5552 3.16597C10.3607 3.28578 10.176 3.41737 10.0009 3.56074C9.82592 3.41737 9.64117 3.28578 9.44671 3.16597C8.63384 2.66515 7.69845 2.40001 6.73973 2.40001C6.04937 2.40001 5.38041 2.53356 4.74839 2.7987C4.13777 3.05402 3.58743 3.42129 3.11487 3.88873C2.64426 4.35248 2.26831 4.90498 2.00836 5.51493C1.73805 6.14931 1.59998 6.82296 1.59998 7.51626C1.59998 8.17028 1.73221 8.85179 1.99474 9.54509C2.21449 10.1245 2.52953 10.7255 2.93207 11.3323C3.56992 12.2927 4.44697 13.2944 5.53598 14.3098C7.34063 15.9929 9.12778 17.1556 9.20362 17.2028L9.66451 17.5013C9.8687 17.6329 10.1312 17.6329 10.3354 17.5013L10.7963 17.2028C10.8721 17.1537 12.6574 15.9929 14.4639 14.3098C15.553 13.2944 16.43 12.2927 17.0679 11.3323C17.4704 10.7255 17.7874 10.1245 18.0052 9.54509C18.2677 8.85179 18.4 8.17028 18.4 7.51626C18.4019 6.82296 18.2638 6.14931 17.9935 5.51493ZM10.0009 15.9478C10.0009 15.9478 3.07792 11.4679 3.07792 7.51626C3.07792 5.51493 4.71728 3.89266 6.73973 3.89266C8.16128 3.89266 9.3942 4.69397 10.0009 5.86453C10.6077 4.69397 11.8406 3.89266 13.2621 3.89266C15.2846 3.89266 16.924 5.51493 16.924 7.51626C16.924 11.4679 10.0009 15.9478 10.0009 15.9478Z" />
  </symbol>
  <symbol  viewBox="0 0 20 20" fill="none" xmlns="http://www.w3.org/2000/svg" id="vk">
    <g clip-path="url(#clip0_1_16085)">
    <path d="M16.5958 10.8567C16.2725 10.4484 16.365 10.2667 16.5958 9.90175C16.6 9.89758 19.2692 6.20925 19.5442 4.95841L19.5458 4.95758C19.6825 4.50175 19.5458 4.16675 18.885 4.16675H16.6983C16.1417 4.16675 15.885 4.45425 15.7475 4.77591C15.7475 4.77591 14.6342 7.44092 13.0592 9.16842C12.5508 9.66758 12.3158 9.82758 12.0383 9.82758C11.9017 9.82758 11.6892 9.66758 11.6892 9.21175V4.95758C11.6892 4.41091 11.5333 4.16675 11.0725 4.16675H7.63417C7.285 4.16675 7.0775 4.42175 7.0775 4.65925C7.0775 5.17758 7.865 5.29675 7.94667 6.75508V9.91925C7.94667 10.6126 7.82083 10.7401 7.54167 10.7401C6.79833 10.7401 4.99417 8.06425 3.925 5.00175C3.70917 4.40758 3.49833 4.16758 2.9375 4.16758H0.75C0.125833 4.16758 0 4.45508 0 4.77675C0 5.34508 0.743333 8.17092 3.45667 11.9042C5.265 14.4526 7.81167 15.8334 10.1283 15.8334C11.5208 15.8334 11.6908 15.5267 11.6908 14.9992C11.6908 12.5642 11.565 12.3342 12.2625 12.3342C12.5858 12.3342 13.1425 12.4942 14.4425 13.7234C15.9283 15.1809 16.1725 15.8334 17.0042 15.8334H19.1908C19.8142 15.8334 20.13 15.5267 19.9483 14.9217C19.5325 13.6492 16.7225 11.0317 16.5958 10.8567Z" fill="#4B729F"/>
    </g>
    <defs>
    <clipPath id="clip0_1_16085">
    <rect width="20" height="20" fill="white"/>
    </clipPath>
    </defs>
  </symbol>
  <symbol viewBox="0 0 20 16" fill="none" xmlns="http://www.w3.org/2000/svg" id="youtube">
    <path d="M0.435077 12.895C0.843411 14.3434 2.09258 14.6084 2.17591 14.6592C4.23174 15.2192 15.7551 15.2209 17.8417 14.6592C19.2709 14.2459 19.5334 12.9784 19.5826 12.895C20.1267 10 20.1626 6.22587 19.5576 2.94087L19.5826 3.10421C19.1742 1.65587 17.9251 1.39087 17.8417 1.34004C15.8134 0.789208 4.26008 0.768374 2.17591 1.34004C0.746744 1.75421 0.484244 3.02087 0.435077 3.10421C-0.147423 6.14671 -0.17659 9.63754 0.435077 12.895ZM8.00674 11.0425V4.96504L13.2284 8.00838L8.00674 11.0425Z" fill="#E53935"/>
  </symbol>
  <symbol viewBox="0 0 20 18" fill="none" xmlns="http://www.w3.org/2000/svg" id="teleg">
    <path d="M7.84737 11.6509L7.51654 16.3042C7.98987 16.3042 8.19487 16.1009 8.44071 15.8567L10.6599 13.7359L15.2582 17.1034C16.1015 17.5734 16.6957 17.3259 16.9232 16.3276L19.9415 2.18422L19.9424 2.18339C20.2099 0.93672 19.4915 0.44922 18.6699 0.755053L0.928205 7.54755C-0.282628 8.01755 -0.264295 8.69255 0.722372 8.99839L5.25821 10.4092L15.794 3.81672C16.2899 3.48839 16.7407 3.67005 16.3699 3.99839L7.84737 11.6509Z" fill="#039BE5"/>
  </symbol>
  <symbol viewBox="0 0 35 24" fill="none" xmlns="http://www.w3.org/2000/svg" id="g-pay">
    <rect x="0.243409" y="0.559815" width="33.5905" height="22.8805" rx="2.6775" fill="white" stroke="#EAEBED" stroke-width="0.486818"/>
    <path fill-rule="evenodd" clip-rule="evenodd" d="M16.0943 15.659V12.7177H17.6124C18.2345 12.7177 18.7595 12.5093 19.1875 12.0982L19.2903 11.994C20.0721 11.1428 20.0208 9.81692 19.1875 9.02948C18.7709 8.6126 18.2002 8.38679 17.6124 8.39837H15.1755V15.659H16.0943ZM16.0944 11.826V9.28998H17.6356C17.9666 9.28998 18.2806 9.41736 18.5146 9.64896C19.0112 10.1353 19.0226 10.9459 18.5432 11.4496C18.3091 11.6986 17.9781 11.8376 17.6356 11.826H16.0944ZM23.5763 11.0791C23.1825 10.7143 22.646 10.5291 21.9669 10.5291C21.0937 10.5291 20.4374 10.8533 20.0037 11.496L20.8141 12.0113C21.1108 11.5713 21.516 11.3512 22.0297 11.3512C22.355 11.3512 22.6689 11.4728 22.9143 11.6929C23.154 11.9013 23.2909 12.2024 23.2909 12.5208V12.7351C22.9371 12.5382 22.4919 12.434 21.9441 12.434C21.3049 12.434 20.7912 12.5845 20.4089 12.8914C20.0265 13.1983 19.8325 13.6036 19.8325 14.1189C19.8211 14.5878 20.0208 15.0337 20.3746 15.3348C20.7342 15.659 21.1907 15.8211 21.7272 15.8211C22.3607 15.8211 22.8629 15.5374 23.2453 14.97H23.2852V15.659H24.1641V12.5961C24.1641 11.9534 23.9701 11.4439 23.5763 11.0791ZM21.0825 14.7442C20.8941 14.6053 20.78 14.3794 20.78 14.1363C20.78 13.8641 20.9055 13.6383 21.151 13.4588C21.4021 13.2793 21.7161 13.1867 22.0871 13.1867C22.6008 13.1809 23.0003 13.2967 23.2857 13.5283C23.2857 13.922 23.1316 14.2636 22.8291 14.5531C22.5551 14.8311 22.1841 14.9874 21.796 14.9874C21.5391 14.9932 21.288 14.9063 21.0825 14.7442ZM26.1388 17.8418L29.2091 10.6912H28.2104L26.7894 14.2578H26.7722L25.3169 10.6912H24.3182L26.3328 15.3405L25.1914 17.8418H26.1388Z" fill="#282739"/>
    <path d="M12.9222 12.0808C12.9222 11.7971 12.8994 11.5134 12.8537 11.2355H8.97864V12.8393H11.1987C11.1074 13.3546 10.8106 13.8178 10.3769 14.1073V15.1495H11.7009C12.477 14.4258 12.9222 13.3546 12.9222 12.0808Z" fill="#4285F4"/>
    <path d="M8.97882 16.157C10.086 16.157 11.0219 15.7864 11.7011 15.1495L10.377 14.1073C10.0061 14.3621 9.5324 14.5069 8.97882 14.5069C7.9059 14.5069 6.99848 13.7715 6.67318 12.7872H5.3092V13.8642C6.00546 15.2711 7.42651 16.157 8.97882 16.157Z" fill="#34A853"/>
    <path d="M6.67333 12.7872C6.50209 12.2719 6.50209 11.7103 6.67333 11.1892V10.118H5.30913C4.72122 11.2934 4.72122 12.683 5.30913 13.8584L6.67333 12.7872Z" fill="#FBBC04"/>
    <path d="M8.97882 9.46949C9.56665 9.45791 10.1316 9.68372 10.554 10.0948L11.7296 8.90207C10.982 8.19569 10.0004 7.80776 8.97882 7.81934C7.42651 7.81934 6.00546 8.711 5.3092 10.118L6.67318 11.1949C6.99848 10.2048 7.9059 9.46949 8.97882 9.46949Z" fill="#EA4335"/>
  </symbol>
  <symbol  viewBox="0 0 36 24" fill="none" xmlns="http://www.w3.org/2000/svg" id="ap-pay">
    <rect x="1.18887" y="0.559815" width="33.5905" height="22.8805" rx="2.6775" fill="white" stroke="#EAEBED" stroke-width="0.486818"/>
    <path fill-rule="evenodd" clip-rule="evenodd" d="M10.273 8.43958C9.98694 8.7822 9.52929 9.05244 9.07165 9.01383C9.01444 8.55057 9.2385 8.05836 9.50069 7.75434C9.78672 7.40207 10.2873 7.15114 10.6925 7.13184C10.7402 7.6144 10.5542 8.08731 10.273 8.43958ZM10.6877 9.10551C10.2845 9.08202 9.91662 9.22825 9.61947 9.34636C9.42825 9.42237 9.26632 9.48673 9.14312 9.48673C9.00487 9.48673 8.83625 9.41892 8.64694 9.34279C8.39887 9.24304 8.11526 9.12899 7.81785 9.13446C7.13614 9.14411 6.5021 9.53499 6.1541 10.1575C5.43902 11.4025 5.96818 13.2459 6.65942 14.2593C6.99789 14.7611 7.4031 15.3113 7.93702 15.292C8.17192 15.283 8.34089 15.2104 8.51576 15.1353C8.71708 15.0488 8.92621 14.959 9.25277 14.959C9.568 14.959 9.76799 15.0465 9.95997 15.1305C10.1425 15.2103 10.3178 15.287 10.578 15.2823C11.131 15.2727 11.479 14.7805 11.8175 14.2786C12.1828 13.74 12.3433 13.2143 12.3676 13.1345L12.3676 13.1345L12.3705 13.1253C12.3699 13.1247 12.3654 13.1226 12.3574 13.1189C12.2353 13.0623 11.3021 12.6298 11.2931 11.4701C11.2841 10.4966 12.0334 10.0034 12.1513 9.92579L12.1513 9.92578C12.1585 9.92106 12.1633 9.91787 12.1655 9.91621C11.6888 9.20202 10.9451 9.12481 10.6877 9.10551ZM14.5158 15.2292V7.70607H17.3046C18.7443 7.70607 19.7501 8.7098 19.7501 10.1768C19.7501 11.6438 18.7252 12.6572 17.2664 12.6572H15.6694V15.2292H14.5158ZM15.6693 8.69052H16.9994C18.0005 8.69052 18.5725 9.23099 18.5725 10.1816C18.5725 11.1323 18.0005 11.6776 16.9946 11.6776H15.6693V8.69052ZM23.5592 14.3269C23.2541 14.9156 22.5819 15.2872 21.8573 15.2872C20.7847 15.2872 20.0362 14.6405 20.0362 13.6658C20.0362 12.7006 20.7608 12.1457 22.1004 12.0637L23.5401 11.9768V11.5618C23.5401 10.9489 23.1444 10.616 22.4389 10.616C21.8573 10.616 21.433 10.92 21.3472 11.3832H20.3079C20.3413 10.4085 21.2471 9.6991 22.4722 9.6991C23.7928 9.6991 24.6508 10.3988 24.6508 11.4846V15.2293H23.583V14.3269H23.5592ZM22.1671 14.3944C21.5521 14.3944 21.1612 14.0952 21.1612 13.6368C21.1612 13.1639 21.5378 12.8888 22.2576 12.8454L23.54 12.7633V13.188C23.54 13.8925 22.9489 14.3944 22.1671 14.3944ZM28.1928 15.5236C27.7304 16.841 27.2012 17.2753 26.0762 17.2753C25.9904 17.2753 25.7043 17.2657 25.6376 17.2464V16.344C25.7091 16.3536 25.8855 16.3633 25.9761 16.3633C26.4862 16.3633 26.7722 16.1461 26.9486 15.5815L27.0535 15.2486L25.0989 9.77148H26.305L27.6637 14.2159H27.6875L29.0461 9.77148H30.2189L28.1928 15.5236Z" fill="#282739"/>
  </symbol>
  <symbol viewBox="0 0 35 24" fill="none" xmlns="http://www.w3.org/2000/svg" id="visa">
    <rect x="1.13434" y="0.559815" width="33.5905" height="22.8805" rx="2.6775" fill="white" stroke="#EAEBED" stroke-width="0.486818"/>
    <path fill-rule="evenodd" clip-rule="evenodd" d="M11.2361 16.146H9.17166L7.6236 10.24C7.55012 9.96834 7.3941 9.72816 7.16461 9.61497C6.59189 9.3305 5.96078 9.1041 5.27231 8.98992V8.76254H8.59793C9.05691 8.76254 9.40115 9.1041 9.45853 9.50079L10.2617 13.7609L12.3252 8.76254H14.3322L11.2361 16.146ZM15.4797 16.146H13.53L15.1354 8.76254H17.0851L15.4797 16.146ZM19.6075 10.808C19.6649 10.4103 20.0091 10.183 20.4107 10.183C21.0418 10.1259 21.7293 10.24 22.303 10.5235L22.6473 8.93385C22.0735 8.70647 21.4424 8.59229 20.8697 8.59229C18.9774 8.59229 17.6005 9.615 17.6005 11.0344C17.6005 12.1142 18.5758 12.6812 19.2643 13.0227C20.0091 13.3633 20.296 13.5907 20.2386 13.9313C20.2386 14.4421 19.6649 14.6695 19.0922 14.6695C18.4037 14.6695 17.7152 14.4992 17.0851 14.2148L16.7409 15.8054C17.4293 16.0889 18.1742 16.2031 18.8627 16.2031C20.9845 16.2592 22.303 15.2375 22.303 13.7039C22.303 11.7726 19.6075 11.6594 19.6075 10.808ZM29.1264 16.146L27.5783 8.76254H25.9155C25.5713 8.76254 25.2271 8.98992 25.1123 9.3305L22.2457 16.146H24.2527L24.6533 15.0671H27.1194L27.3488 16.146H29.1264ZM26.2024 10.7509L26.7751 13.5336H25.1697L26.2024 10.7509Z" fill="#172B85"/>
  </symbol>
  <symbol  viewBox="0 0 35 24" fill="none" xmlns="http://www.w3.org/2000/svg" id="master-card">
    <rect x="1.07977" y="0.559815" width="33.5905" height="22.8805" rx="2.6775" fill="white" stroke="#EAEBED" stroke-width="0.486818"/>
    <path fill-rule="evenodd" clip-rule="evenodd" d="M22.3767 18.8447C26.046 18.8447 29.0206 15.8356 29.0206 12.1237C29.0206 8.4118 26.046 5.40271 22.3767 5.40271C20.7323 5.40271 19.2273 6.0071 18.0672 7.00828C16.907 6.00712 15.4021 5.40274 13.7577 5.40274C10.0883 5.40274 7.11378 8.41183 7.11378 12.1237C7.11378 15.8356 10.0883 18.8447 13.7577 18.8447C15.4021 18.8447 16.907 18.2403 18.0672 17.2392C19.2274 18.2403 20.7323 18.8447 22.3767 18.8447Z" fill="#ED0006"/>
    <path fill-rule="evenodd" clip-rule="evenodd" d="M18.0672 17.2392C19.4957 16.0064 20.4015 14.1721 20.4015 12.1237C20.4015 10.0754 19.4957 8.24102 18.0672 7.00826C19.2274 6.0071 20.7323 5.40271 22.3767 5.40271C26.046 5.40271 29.0206 8.4118 29.0206 12.1237C29.0206 15.8356 26.046 18.8447 22.3767 18.8447C20.7323 18.8447 19.2274 18.2403 18.0672 17.2392Z" fill="#F9A000"/>
    <path fill-rule="evenodd" clip-rule="evenodd" d="M18.0672 17.2391C19.4957 16.0064 20.4015 14.1721 20.4015 12.1237C20.4015 10.0754 19.4957 8.24106 18.0672 7.0083C16.6387 8.24106 15.7329 10.0754 15.7329 12.1237C15.7329 14.1721 16.6387 16.0064 18.0672 17.2391Z" fill="#FF5E00"/>
  </symbol>
  <symbol viewBox="0 0 35 24" fill="none" xmlns="http://www.w3.org/2000/svg" id="world-card">
    <rect x="1.02524" y="0.559815" width="33.5905" height="22.8805" rx="2.6775" fill="white" stroke="#EAEBED" stroke-width="0.486818"/>
    <path d="M20.347 12.1237C20.347 15.8356 17.3724 18.8447 13.7031 18.8447C10.0338 18.8447 7.05925 15.8356 7.05925 12.1237C7.05925 8.4118 10.0338 5.40271 13.7031 5.40271C17.3724 5.40271 20.347 8.4118 20.347 12.1237Z" fill="#ED0006"/>
    <path d="M28.9661 12.1237C28.9661 15.8356 25.9915 18.8447 22.3222 18.8447C18.6529 18.8447 15.6783 15.8356 15.6783 12.1237C15.6783 8.4118 18.6529 5.40271 22.3222 5.40271C25.9915 5.40271 28.9661 8.4118 28.9661 12.1237Z" fill="#0099DF"/>
    <path fill-rule="evenodd" clip-rule="evenodd" d="M18.0127 17.2391C19.4412 16.0064 20.347 14.1721 20.347 12.1237C20.347 10.0754 19.4412 8.24106 18.0127 7.0083C16.5842 8.24106 15.6784 10.0754 15.6784 12.1237C15.6784 14.1721 16.5842 16.0064 18.0127 17.2391Z" fill="#6C6BBD"/>
  </symbol>
  <symbol  viewBox="0 0 35 24" fill="none" xmlns="http://www.w3.org/2000/svg" id="web-money">
    <rect x="0.970689" y="0.559815" width="33.5905" height="22.8805" rx="2.6775" fill="white" stroke="#EAEBED" stroke-width="0.486818"/>
    <path fill-rule="evenodd" clip-rule="evenodd" d="M13.5474 16.0491C13.6999 15.9699 13.9592 15.8659 14.2339 15.8659C14.8643 15.8659 15.2051 16.2916 15.2051 17.0838C15.2051 18.0091 14.7476 18.4596 14.0102 18.4596C13.7406 18.4596 13.3237 18.3755 13.0185 18.2169V14.7622L13.5474 14.6384V16.0491ZM13.5424 18.0338C13.705 18.1031 13.8831 18.1129 14.0102 18.1129C14.3865 18.1129 14.6713 17.8853 14.6713 17.0837C14.6713 16.4549 14.4373 16.252 14.0967 16.252C13.8931 16.252 13.7458 16.3064 13.5424 16.4153V18.0338ZM8.12647 15.9301H8.16208L8.85349 18.4001H9.40262L10.2265 14.8907H9.6315L9.11286 17.5092H9.07742L8.37046 14.8907H7.91791L7.2569 17.5092H7.22128L6.65173 14.8907H6.08228L6.90607 18.4001H7.45511L8.12647 15.9301ZM12.4798 18.2317V17.8556C12.2001 18.0189 11.946 18.1129 11.6714 18.1129C11.1476 18.1129 10.8985 17.8505 10.8985 17.2566H12.5561V17.0736C12.5561 16.2669 12.1645 15.8659 11.529 15.8659C10.7663 15.8659 10.3747 16.4104 10.3747 17.1626C10.3747 17.9448 10.7256 18.4596 11.5797 18.4596C11.946 18.4596 12.251 18.3606 12.4798 18.2317ZM12.073 16.9251H10.9088C10.9646 16.4303 11.2034 16.1976 11.5138 16.1976C11.7884 16.1976 12.0478 16.4053 12.073 16.9251ZM17.5442 17.6576H17.5187L16.3797 14.8907H15.7645V18.4001H16.2221V15.9154H16.2678L17.3053 18.4001H17.6306L18.668 15.856H18.7138V18.4001H19.263V14.8907H18.6323L17.5442 17.6576ZM19.8224 17.1626C19.8224 16.2964 20.3106 15.8659 20.9817 15.8659C21.653 15.8659 22.1413 16.2964 22.1413 17.1626C22.1413 18.0091 21.6785 18.4596 20.9817 18.4596C20.285 18.4596 19.8224 18.0091 19.8224 17.1626ZM21.6072 17.1626C21.6072 16.4945 21.3274 16.2124 20.9817 16.2124C20.6461 16.2124 20.3562 16.4945 20.3562 17.1626C20.3562 17.8409 20.6208 18.1129 20.9817 18.1129C21.3427 18.1129 21.6072 17.8409 21.6072 17.1626ZM23.9206 15.8659C23.3361 15.8659 22.8529 16.0985 22.6241 16.2321V18.4001H23.153V16.44C23.3105 16.3511 23.5699 16.2618 23.7734 16.2618C24.0327 16.2618 24.2308 16.3311 24.2308 16.7222V18.4001H24.7596V16.6082C24.7596 16.0985 24.531 15.8659 23.9206 15.8659ZM27.3376 17.8556V18.2317C27.1089 18.3606 26.8039 18.4596 26.4376 18.4596C25.5835 18.4596 25.2326 17.9448 25.2326 17.1626C25.2326 16.4104 25.6243 15.8659 26.3869 15.8659C27.0227 15.8659 27.4143 16.2669 27.4143 17.0736V17.2566H25.7566C25.7566 17.8505 26.0057 18.1129 26.5294 18.1129C26.8039 18.1129 27.0582 18.0189 27.3376 17.8556ZM25.7667 16.9251H26.9311C26.9058 16.4053 26.6463 16.1976 26.3717 16.1976C26.0614 16.1976 25.8227 16.4303 25.7667 16.9251ZM29.9364 15.95H29.3923L28.8124 17.7714H28.7821L28.1312 15.95H27.5718L28.5482 18.4248C28.4259 18.791 28.2126 19.0585 27.8668 19.0585V19.4642C28.4513 19.4642 28.7616 19.108 29.0159 18.4248L29.9364 15.95Z" fill="#0068A3"/>
    <path fill-rule="evenodd" clip-rule="evenodd" d="M17.6684 4.51599C18.3682 4.51599 19.0309 4.67461 19.6211 4.95623C19.7138 4.99903 19.8063 5.04613 19.899 5.09813L19.4887 5.45555L18.8723 4.83516L17.832 5.73839L17.214 5.08193L15.2761 6.7823L16.5185 8.11508L16.0302 8.53308L17.254 9.86788L16.7686 10.2849L18.5173 12.1795L19.5553 11.2493L20.4527 12.2462C20.2742 12.3812 20.0798 12.5083 19.8656 12.6258C19.2166 12.986 18.4665 13.1923 17.6684 13.1923C15.2137 13.1923 13.2117 11.2433 13.2117 8.85426C13.2117 6.4647 15.2137 4.51599 17.6684 4.51599ZM16.8561 8.58003L17.9159 7.65107L18.8702 8.68289L17.8105 9.61151L16.8561 8.58003ZM18.6696 9.43385L17.6098 10.3626L18.5642 11.3944L19.624 10.4654L18.6696 9.43385ZM16.0979 6.81844L17.1576 5.88974L18.1117 6.9213L17.0519 7.85001L16.0979 6.81844ZM18.8375 5.62202L18.0426 6.31849L18.7582 7.09242L19.5531 6.3957L18.8375 5.62202ZM19.4548 9.50921L20.2499 8.81249L20.9655 9.58634L20.1707 10.2829L19.4548 9.50921ZM20.9487 10.3752L20.1541 11.072L20.8697 11.8454L21.6645 11.1488L20.9487 10.3752ZM20.4742 7.4903L21.0041 7.0259L21.4811 7.54169L20.9515 8.006L20.4742 7.4903ZM20.3271 5.49343L19.7972 5.95773L20.2742 6.47352L20.8042 6.00921L20.3271 5.49343ZM21.1516 9.02272L21.6815 8.55832L22.1586 9.07402L21.6287 9.53841L21.1516 9.02272ZM19.57 7.17756L18.7752 7.87437L19.491 8.64778L20.2856 7.95123L19.57 7.17756Z" fill="#0068A3"/>
 </symbol>
 <symbol  viewBox="0 0 35 24" fill="none" xmlns="http://www.w3.org/2000/svg" id="qiwi">
    <rect x="0.916139" y="0.559815" width="33.5905" height="22.8805" rx="2.6775" fill="white" stroke="#EAEBED" stroke-width="0.486818"/>
    <path fill-rule="evenodd" clip-rule="evenodd" d="M10.4091 11.5788C10.4091 15.3487 13.4836 18.4232 17.2901 18.4232C17.7573 18.4232 18.2245 18.3823 18.7614 18.3353C19.36 18.2829 20.0453 18.2229 20.9136 18.2036C22.2313 18.2036 23.6587 18.6794 25.2326 20.0702C25.379 20.2167 25.5986 20.0336 25.4522 19.8506C23.8783 17.9108 22.4509 17.5448 21.0234 17.2154C19.2666 16.8127 18.3516 15.8611 17.7293 14.7631C17.6195 14.5435 17.5463 14.5801 17.5463 14.8729C17.5097 15.3121 17.5463 15.7147 17.6195 16.1173H17.3999C14.911 16.1173 12.8614 14.0677 12.8614 11.5788C12.8614 9.0899 14.911 7.04023 17.3999 7.04023C19.8888 7.04023 21.9385 9.0899 21.9385 11.5788C21.9385 11.7252 21.9385 11.9082 21.9019 12.0912C21.5359 12.018 20.9136 12.018 20.4378 12.0546C20.2548 12.0546 20.2548 12.1278 20.4012 12.1644C21.8653 12.4572 22.8901 13.3722 23.1463 15.0559C23.1463 15.1291 23.1829 15.1291 23.2195 15.0925C23.8051 14.0677 24.1711 12.8598 24.1711 11.5788C24.1711 7.77225 21.0966 4.69775 17.2901 4.69775C13.4836 4.69775 10.4091 7.80885 10.4091 11.5788ZM22.2678 14.3971C22.524 14.5069 22.6338 14.8729 22.6338 15.0559C22.6704 15.3487 22.5972 15.4951 22.4874 15.4951C22.3776 15.4951 22.2312 15.3853 22.0848 15.1291C21.9384 14.8729 21.8652 14.6167 21.9384 14.4703C22.0482 14.3971 22.158 14.3605 22.2678 14.3971ZM20.7672 15.5317C20.9136 15.5317 21.0966 15.6049 21.2796 15.7513C21.5724 16.0075 21.6822 16.3004 21.5358 16.52C21.4626 16.6298 21.2796 16.703 21.1332 16.703C20.9502 16.703 20.7672 16.6298 20.6574 16.52C20.3646 16.2638 20.2914 15.8977 20.4744 15.6781C20.511 15.6049 20.6208 15.5317 20.7672 15.5317Z" fill="#F28A1A"/>
  </symbol>
  <symbol viewBox="0 0 20 12" fill="none" xmlns="http://www.w3.org/2000/svg" id="balanc">
    <mask id="path-1-inside-1_601_503" fill="white">
    <path d="M19.4141 7.26396H18.7766L16.7349 2.32556C17.0208 2.28666 17.2413 2.0422 17.2413 1.74564C17.2413 1.42205 16.979 1.1597 16.6554 1.1597H11.6177C11.3769 0.490914 10.7363 0.0113831 9.98559 0.0113831C9.23488 0.0113831 8.59422 0.490953 8.3534 1.1597H3.34465C3.02105 1.1597 2.75871 1.42205 2.75871 1.74564C2.75871 2.0422 2.97926 2.28666 3.26512 2.32556L1.22344 7.26396H0.585938C0.262344 7.26396 0 7.5263 0 7.8499C0 10.132 1.85668 11.9887 4.13883 11.9887C6.42098 11.9887 8.27766 10.132 8.27766 7.8499C8.27766 7.5263 8.01531 7.26396 7.69172 7.26396H7.05418L5.01504 2.33158H8.3534C8.59422 3.00037 9.23484 3.4799 9.98559 3.4799C10.7363 3.4799 11.3769 3.00037 11.6177 2.33158H14.985L12.9459 7.26396H12.3083C11.9847 7.26396 11.7224 7.5263 11.7224 7.8499C11.7224 10.132 13.5791 11.9887 15.8612 11.9887C18.1434 11.9887 20 10.132 20 7.8499C20 7.5263 19.7377 7.26396 19.4141 7.26396ZM4.13883 10.8169C2.70332 10.8169 1.5027 9.7922 1.22996 8.43584H7.0477C6.77496 9.7922 5.57434 10.8169 4.13883 10.8169ZM5.78613 7.26396H2.49152L4.13883 3.27943L5.78613 7.26396ZM9.98555 2.30802C9.67543 2.30802 9.42316 2.05576 9.42316 1.74564C9.42316 1.43552 9.67543 1.18326 9.98555 1.18326C10.2956 1.18326 10.5479 1.43552 10.5479 1.74564C10.5479 2.05576 10.2957 2.30802 9.98555 2.30802ZM15.8612 3.27943L17.5085 7.26396H14.2139L15.8612 3.27943ZM15.8612 10.8169C14.4257 10.8169 13.225 9.7922 12.9523 8.43584H18.77C18.4973 9.7922 17.2966 10.8169 15.8612 10.8169Z"/>
    </mask>
    <path d="M19.4141 7.26396H18.7766L16.7349 2.32556C17.0208 2.28666 17.2413 2.0422 17.2413 1.74564C17.2413 1.42205 16.979 1.1597 16.6554 1.1597H11.6177C11.3769 0.490914 10.7363 0.0113831 9.98559 0.0113831C9.23488 0.0113831 8.59422 0.490953 8.3534 1.1597H3.34465C3.02105 1.1597 2.75871 1.42205 2.75871 1.74564C2.75871 2.0422 2.97926 2.28666 3.26512 2.32556L1.22344 7.26396H0.585938C0.262344 7.26396 0 7.5263 0 7.8499C0 10.132 1.85668 11.9887 4.13883 11.9887C6.42098 11.9887 8.27766 10.132 8.27766 7.8499C8.27766 7.5263 8.01531 7.26396 7.69172 7.26396H7.05418L5.01504 2.33158H8.3534C8.59422 3.00037 9.23484 3.4799 9.98559 3.4799C10.7363 3.4799 11.3769 3.00037 11.6177 2.33158H14.985L12.9459 7.26396H12.3083C11.9847 7.26396 11.7224 7.5263 11.7224 7.8499C11.7224 10.132 13.5791 11.9887 15.8612 11.9887C18.1434 11.9887 20 10.132 20 7.8499C20 7.5263 19.7377 7.26396 19.4141 7.26396ZM4.13883 10.8169C2.70332 10.8169 1.5027 9.7922 1.22996 8.43584H7.0477C6.77496 9.7922 5.57434 10.8169 4.13883 10.8169ZM5.78613 7.26396H2.49152L4.13883 3.27943L5.78613 7.26396ZM9.98555 2.30802C9.67543 2.30802 9.42316 2.05576 9.42316 1.74564C9.42316 1.43552 9.67543 1.18326 9.98555 1.18326C10.2956 1.18326 10.5479 1.43552 10.5479 1.74564C10.5479 2.05576 10.2957 2.30802 9.98555 2.30802ZM15.8612 3.27943L17.5085 7.26396H14.2139L15.8612 3.27943ZM15.8612 10.8169C14.4257 10.8169 13.225 9.7922 12.9523 8.43584H18.77C18.4973 9.7922 17.2966 10.8169 15.8612 10.8169Z" fill="#5D6C7B"/>
    <path d="M18.7766 7.26396L15.08 8.79219L16.1019 11.264H18.7766V7.26396ZM16.7349 2.32556L16.1956 -1.63791L11.0571 -0.93864L13.0384 3.8538L16.7349 2.32556ZM11.6177 1.1597L7.85429 2.51486L8.80665 5.1597H11.6177V1.1597ZM8.3534 1.1597V5.1597H11.1644L12.1168 2.51493L8.3534 1.1597ZM3.26512 2.32556L6.96166 3.85382L8.94296 -0.938545L3.80455 -1.6379L3.26512 2.32556ZM1.22344 7.26396V11.264H3.89809L4.91998 8.79222L1.22344 7.26396ZM7.05418 7.26396L3.35762 8.79219L4.3795 11.264H7.05418V7.26396ZM5.01504 2.33158V-1.66842H-0.966991L1.31848 3.85981L5.01504 2.33158ZM8.3534 2.33158L12.1168 0.97642L11.1645 -1.66842H8.3534V2.33158ZM11.6177 2.33158V-1.66842H8.80665L7.85429 0.97642L11.6177 2.33158ZM14.985 2.33158L18.6816 3.8598L20.967 -1.66842H14.985V2.33158ZM12.9459 7.26396V11.264H15.6205L16.6424 8.79219L12.9459 7.26396ZM1.22996 8.43584V4.43584H-3.65441L-2.69155 9.22436L1.22996 8.43584ZM7.0477 8.43584L10.9692 9.22436L11.9321 4.43584H7.0477V8.43584ZM5.78613 7.26396V11.264H11.7682L9.48268 5.73572L5.78613 7.26396ZM2.49152 7.26396L-1.20502 5.73572L-3.49054 11.264H2.49152V7.26396ZM4.13883 3.27943L7.83538 1.75118L4.13883 -7.19009L0.44228 1.75118L4.13883 3.27943ZM15.8612 3.27943L19.5577 1.75118L15.8612 -7.19009L12.1646 1.75118L15.8612 3.27943ZM17.5085 7.26396V11.264H23.4905L21.205 5.73572L17.5085 7.26396ZM14.2139 7.26396L10.5173 5.73572L8.2318 11.264H14.2139V7.26396ZM12.9523 8.43584V4.43584H8.06793L9.0308 9.22436L12.9523 8.43584ZM18.77 8.43584L22.6915 9.22436L23.6544 4.43584H18.77V8.43584ZM19.4141 3.26396H18.7766V11.264H19.4141V3.26396ZM22.4731 5.73573L20.4315 0.797329L13.0384 3.8538L15.08 8.79219L22.4731 5.73573ZM17.2743 6.28903C19.5083 5.98502 21.2413 4.07737 21.2413 1.74564H13.2413C13.2413 0.00703483 14.5334 -1.41171 16.1956 -1.63791L17.2743 6.28903ZM21.2413 1.74564C21.2413 -0.787092 19.1881 -2.8403 16.6554 -2.8403V5.1597C14.7698 5.1597 13.2413 3.63119 13.2413 1.74564H21.2413ZM16.6554 -2.8403H11.6177V5.1597H16.6554V-2.8403ZM15.3812 -0.195455C14.5889 -2.39583 12.4809 -3.98862 9.98559 -3.98862V4.01138C8.99163 4.01138 8.16497 3.37766 7.85429 2.51486L15.3812 -0.195455ZM9.98559 -3.98862C7.49022 -3.98862 5.38231 -2.3958 4.58997 -0.195525L12.1168 2.51493C11.8061 3.37771 10.9795 4.01138 9.98559 4.01138V-3.98862ZM8.3534 -2.8403H3.34465V5.1597H8.3534V-2.8403ZM3.34465 -2.8403C0.811916 -2.8403 -1.24129 -0.787092 -1.24129 1.74564H6.75871C6.75871 3.63119 5.23019 5.1597 3.34465 5.1597V-2.8403ZM-1.24129 1.74564C-1.24129 4.07761 0.492035 5.98502 2.72568 6.28902L3.80455 -1.6379C5.46648 -1.4117 6.75871 0.00679731 6.75871 1.74564H-1.24129ZM-0.431425 0.797303L-2.4731 5.7357L4.91998 8.79222L6.96166 3.85382L-0.431425 0.797303ZM1.22344 3.26396H0.585938V11.264H1.22344V3.26396ZM0.585938 3.26396C-1.9468 3.26396 -4 5.31717 -4 7.8499H4C4 9.73544 2.47148 11.264 0.585938 11.264V3.26396ZM-4 7.8499C-4 12.3412 -0.352459 15.9887 4.13883 15.9887V7.98873C4.11514 7.98873 4.10112 7.98469 4.08983 7.9799C4.07582 7.97397 4.05865 7.9633 4.04204 7.94669C4.02542 7.93008 4.01476 7.9129 4.00882 7.8989C4.00404 7.88761 4 7.87358 4 7.8499H-4ZM4.13883 15.9887C8.63012 15.9887 12.2777 12.3412 12.2777 7.8499H4.27766C4.27766 7.87358 4.27362 7.88761 4.26883 7.8989C4.2629 7.9129 4.25223 7.93008 4.23562 7.94669C4.21901 7.9633 4.20183 7.97397 4.18783 7.9799C4.17654 7.98469 4.16251 7.98873 4.13883 7.98873V15.9887ZM12.2777 7.8499C12.2777 5.31717 10.2245 3.26396 7.69172 3.26396V11.264C5.80617 11.264 4.27766 9.73544 4.27766 7.8499H12.2777ZM7.69172 3.26396H7.05418V11.264H7.69172V3.26396ZM10.7507 5.73573L8.71159 0.803352L1.31848 3.85981L3.35762 8.79219L10.7507 5.73573ZM5.01504 6.33158H8.3534V-1.66842H5.01504V6.33158ZM4.58995 3.68674C5.38229 5.88717 7.49024 7.4799 9.98559 7.4799V-0.520102C10.9795 -0.520102 11.8061 0.113567 12.1168 0.97642L4.58995 3.68674ZM9.98559 7.4799C12.4809 7.4799 14.5889 5.88712 15.3812 3.68674L7.85429 0.97642C8.16497 0.113618 8.99163 -0.520102 9.98559 -0.520102V7.4799ZM11.6177 6.33158H14.985V-1.66842H11.6177V6.33158ZM11.2884 0.803353L9.2493 5.73573L16.6424 8.79219L18.6816 3.8598L11.2884 0.803353ZM12.9459 3.26396H12.3083V11.264H12.9459V3.26396ZM12.3083 3.26396C9.77559 3.26396 7.72238 5.31717 7.72238 7.8499H15.7224C15.7224 9.73544 14.1939 11.264 12.3083 11.264V3.26396ZM7.72238 7.8499C7.72238 12.3412 11.3699 15.9887 15.8612 15.9887V7.98873C15.8375 7.98873 15.8235 7.98469 15.8122 7.9799C15.7982 7.97397 15.781 7.9633 15.7644 7.94669C15.7478 7.93008 15.7371 7.9129 15.7312 7.8989C15.7264 7.88761 15.7224 7.87358 15.7224 7.8499H7.72238ZM15.8612 15.9887C20.3525 15.9887 24 12.3411 24 7.8499H16C16 7.8736 15.996 7.88763 15.9912 7.89892C15.9852 7.91293 15.9746 7.9301 15.958 7.94671C15.9414 7.96332 15.9242 7.97398 15.9102 7.97991C15.8989 7.98469 15.8849 7.98873 15.8612 7.98873V15.9887ZM24 7.8499C24 5.31717 21.9468 3.26396 19.4141 3.26396V11.264C17.5285 11.264 16 9.73544 16 7.8499H24ZM4.13883 6.81685C4.64856 6.81685 5.05659 7.17546 5.15147 7.64731L-2.69155 9.22436C-2.0512 12.4089 0.758084 14.8169 4.13883 14.8169V6.81685ZM1.22996 12.4358H7.0477V4.43584H1.22996V12.4358ZM3.12619 7.64731C3.22107 7.17546 3.6291 6.81685 4.13883 6.81685V14.8169C7.51957 14.8169 10.3289 12.4089 10.9692 9.22436L3.12619 7.64731ZM5.78613 3.26396H2.49152V11.264H5.78613V3.26396ZM6.18807 8.79221L7.83538 4.80768L0.44228 1.75118L-1.20502 5.73572L6.18807 8.79221ZM0.44228 4.80767L2.08958 8.79221L9.48268 5.73572L7.83538 1.75118L0.44228 4.80767ZM9.98555 -1.69198C11.8846 -1.69198 13.4232 -0.153383 13.4232 1.74564H5.42316C5.42316 4.2649 7.46629 6.30802 9.98555 6.30802V-1.69198ZM13.4232 1.74564C13.4232 3.64466 11.8846 5.18326 9.98555 5.18326V-2.81674C7.46629 -2.81674 5.42316 -0.773613 5.42316 1.74564H13.4232ZM9.98555 5.18326C8.08667 5.18326 6.54793 3.64484 6.54793 1.74564H14.5479C14.5479 -0.773794 12.5046 -2.81674 9.98555 -2.81674V5.18326ZM6.54793 1.74564C6.54793 -0.153383 8.08653 -1.69198 9.98555 -1.69198V6.30802C12.5048 6.30802 14.5479 4.2649 14.5479 1.74564H6.54793ZM12.1646 4.80767L13.8119 8.79221L21.205 5.73572L19.5577 1.75118L12.1646 4.80767ZM17.5085 3.26396H14.2139V11.264H17.5085V3.26396ZM17.9104 8.79221L19.5577 4.80767L12.1646 1.75118L10.5173 5.73572L17.9104 8.79221ZM15.8612 6.81685C16.3709 6.81685 16.7789 7.17546 16.8738 7.64731L9.0308 9.22436C9.67114 12.4089 12.4804 14.8169 15.8612 14.8169V6.81685ZM12.9523 12.4358H18.77V4.43584H12.9523V12.4358ZM14.8485 7.64731C14.9434 7.17543 15.3514 6.81685 15.8612 6.81685V14.8169C19.2418 14.8169 22.0512 12.409 22.6915 9.22436L14.8485 7.64731Z"  mask="url(#path-1-inside-1_601_503)"/>
  </symbol>
   <symbol viewBox="0 0 24 24" fill="none" xmlns="http://www.w3.org/2000/svg" id="close">
    <path d="M3.86726 3.15991L3.16016 3.86702L11.292 11.9988L3.1603 20.1305L3.8674 20.8376L11.9991 12.7059L20.1307 20.8376L20.8378 20.1305L12.7062 11.9988L20.838 3.86702L20.1309 3.15991L11.9991 11.2917L3.86726 3.15991Z" fill="#828A99"/>
  </symbol>




</svg>